# xmcd CD database file
#
# Track frame offsets:
#	150
#	18625
#	38836
#	57846
#	71771
#	84630
#	107617
#	133766
#	153254
#	174786
#
# Disc length: 2674 seconds
#
# Revision: 1
# Processed by: cddbd v1.5.2PL0 Copyright (c) Steve Scherf et al.
# Submitted via: CDex 1.70beta2
#
DISCID=7c0a700a
DTITLE=Steve Morse - Prime Cuts  Vol.2
DYEAR=2009
DGENRE=Blues
TTITLE0=Zig Zags
TTITLE1=On Fire
TTITLE2=Bar Hopping With Mr. Picky
TTITLE3=Ghost Of The Bayou
TTITLE4=Mood For A Day
TTITLE5=TruthOla
TTITLE6=Portrait
TTITLE7=Great Mountain Spirits
TTITLE8=Midnight Daydream
TTITLE9=Red Barchetta
EXTD=YEAR: 2009
EXTT0=
EXTT1=
EXTT2=
EXTT3=
EXTT4=
EXTT5=
EXTT6=
EXTT7=
EXTT8=
EXTT9=
PLAYORDER=
